<svg width="659" height="659" viewBox="0 0 659 659" fill="none" xmlns="http://www.w3.org/2000/svg">
<path d="M248.483 60.7825C296.49 24.7656 362.51 24.7656 410.517 60.7826L484.44 116.243L560.03 169.41C609.119 203.938 629.52 266.726 610.101 323.513L580.198 410.957L552.992 499.276C535.324 556.633 481.913 595.438 421.904 594.518L329.5 593.1L237.096 594.518C177.087 595.438 123.676 556.632 106.008 499.276L78.8015 410.957L48.8989 323.513C29.4797 266.726 49.8811 203.937 98.9702 169.41L174.56 116.243L248.483 60.7825Z" fill="#316BFD"/>
<path d="M315.115 156.116C299.517 156.422 285.927 169.537 286.155 185.855L287.188 262.235L240.683 246.773L229.167 210.479C226.16 201.023 218.507 193.685 208.912 191.105C192.515 186.711 175.439 197.633 172.551 214.358L165.607 254.698C160.674 283.368 177.559 311.555 205.169 320.714L440.828 398.905C461.972 405.924 485.17 394.295 492.177 373.146C499.194 352.009 487.568 328.833 466.435 321.814L386.719 295.327L343.093 175.406C339.674 166.004 331.644 158.968 321.889 156.793C319.613 156.286 317.343 156.072 315.115 156.116ZM314.573 182.146C315.071 182.054 315.629 182.062 316.233 182.197C317.369 182.45 318.241 183.207 318.638 184.297L364.432 310.129C365.104 311.972 366.184 313.64 367.592 315.006C369 316.373 370.698 317.404 372.561 318.021L458.238 346.507C466.032 349.095 470.076 357.143 467.485 364.949C464.902 372.745 456.825 376.802 449.025 374.213L213.366 296.021C197.794 290.856 188.464 275.279 191.248 259.102L198.191 218.778C198.545 216.727 200.156 215.701 202.154 216.238C203.218 216.523 204.034 217.289 204.373 218.355L217.887 260.948C218.508 262.906 219.583 264.69 221.025 266.153C222.468 267.616 224.236 268.717 226.186 269.365L296.35 292.685C298.319 293.339 300.415 293.512 302.464 293.19C304.513 292.869 306.456 292.062 308.13 290.838C309.804 289.613 311.16 288.005 312.087 286.15C313.013 284.294 313.482 282.244 313.455 280.17L312.151 185.499C312.125 183.658 313.078 182.424 314.573 182.146ZM186.421 450.898C184.697 450.874 182.986 451.192 181.387 451.835C179.787 452.477 178.332 453.432 177.104 454.642C175.877 455.852 174.902 457.294 174.237 458.884C173.572 460.474 173.229 462.181 173.229 463.905C173.229 465.628 173.572 467.335 174.237 468.925C174.902 470.515 175.877 471.957 177.104 473.167C178.332 474.377 179.787 475.332 181.387 475.974C182.986 476.617 184.697 476.935 186.421 476.911H472.566C474.289 476.935 476 476.617 477.6 475.974C479.199 475.332 480.655 474.377 481.882 473.167C483.11 471.957 484.084 470.515 484.75 468.925C485.415 467.335 485.758 465.628 485.758 463.905C485.758 462.181 485.415 460.474 484.75 458.884C484.084 457.294 483.11 455.852 481.882 454.642C480.655 453.432 479.199 452.477 477.6 451.835C476 451.192 474.289 450.874 472.566 450.898H186.421Z" fill="white"/>
</svg>
